<mxfile host="Electron" modified="2024-03-05T09:41:24.986Z" agent="Mozilla/5.0 (Windows NT 10.0; Win64; x64) AppleWebKit/537.36 (KHTML, like Gecko) draw.io/23.1.5 Chrome/120.0.6099.109 Electron/28.1.0 Safari/537.36" etag="xN-qkimjRCpFRwUkqXfv" version="23.1.5" type="device">
  <diagram name="Страница — 1" id="j07mjWIYV5L7dGInIyWD">
    <mxGraphModel dx="714" dy="420" grid="1" gridSize="10" guides="1" tooltips="1" connect="1" arrows="1" fold="1" page="1" pageScale="1" pageWidth="827" pageHeight="1169" math="0" shadow="0">
      <root>
        <mxCell id="0" />
        <mxCell id="1" parent="0" />
        <mxCell id="e4RKRJj5SFR6BGmdIC3z-14" style="rounded=0;orthogonalLoop=1;jettySize=auto;html=1;exitX=1;exitY=0.3333333333333333;exitDx=0;exitDy=0;exitPerimeter=0;entryX=0;entryY=0.5;entryDx=0;entryDy=0;endArrow=none;endFill=0;" edge="1" parent="1" source="e4RKRJj5SFR6BGmdIC3z-3" target="e4RKRJj5SFR6BGmdIC3z-9">
          <mxGeometry relative="1" as="geometry" />
        </mxCell>
        <mxCell id="e4RKRJj5SFR6BGmdIC3z-3" value="Заказчик" style="shape=umlActor;verticalLabelPosition=bottom;verticalAlign=top;html=1;outlineConnect=0;" vertex="1" parent="1">
          <mxGeometry x="230" y="300" width="30" height="60" as="geometry" />
        </mxCell>
        <mxCell id="e4RKRJj5SFR6BGmdIC3z-15" style="rounded=0;orthogonalLoop=1;jettySize=auto;html=1;exitX=0;exitY=0.5;exitDx=0;exitDy=0;entryX=0.5;entryY=0;entryDx=0;entryDy=0;endArrow=none;endFill=0;" edge="1" parent="1" source="e4RKRJj5SFR6BGmdIC3z-12" target="e4RKRJj5SFR6BGmdIC3z-7">
          <mxGeometry relative="1" as="geometry" />
        </mxCell>
        <mxCell id="e4RKRJj5SFR6BGmdIC3z-17" value="extended" style="edgeLabel;html=1;align=center;verticalAlign=middle;resizable=0;points=[];" vertex="1" connectable="0" parent="e4RKRJj5SFR6BGmdIC3z-15">
          <mxGeometry x="0.0312" relative="1" as="geometry">
            <mxPoint as="offset" />
          </mxGeometry>
        </mxCell>
        <mxCell id="e4RKRJj5SFR6BGmdIC3z-16" style="rounded=0;orthogonalLoop=1;jettySize=auto;html=1;exitX=0;exitY=0.3333333333333333;exitDx=0;exitDy=0;exitPerimeter=0;entryX=1;entryY=0.5;entryDx=0;entryDy=0;endArrow=none;endFill=0;" edge="1" parent="1" source="e4RKRJj5SFR6BGmdIC3z-4" target="e4RKRJj5SFR6BGmdIC3z-12">
          <mxGeometry relative="1" as="geometry" />
        </mxCell>
        <mxCell id="e4RKRJj5SFR6BGmdIC3z-18" style="rounded=0;orthogonalLoop=1;jettySize=auto;html=1;exitX=0;exitY=0.3333333333333333;exitDx=0;exitDy=0;exitPerimeter=0;entryX=1;entryY=0.5;entryDx=0;entryDy=0;endArrow=none;endFill=0;" edge="1" parent="1" source="e4RKRJj5SFR6BGmdIC3z-4" target="e4RKRJj5SFR6BGmdIC3z-11">
          <mxGeometry relative="1" as="geometry" />
        </mxCell>
        <mxCell id="e4RKRJj5SFR6BGmdIC3z-19" style="rounded=0;orthogonalLoop=1;jettySize=auto;html=1;exitX=0;exitY=0.3333333333333333;exitDx=0;exitDy=0;exitPerimeter=0;entryX=1;entryY=0.5;entryDx=0;entryDy=0;endArrow=none;endFill=0;" edge="1" parent="1" source="e4RKRJj5SFR6BGmdIC3z-4" target="e4RKRJj5SFR6BGmdIC3z-13">
          <mxGeometry relative="1" as="geometry" />
        </mxCell>
        <mxCell id="e4RKRJj5SFR6BGmdIC3z-22" style="rounded=0;orthogonalLoop=1;jettySize=auto;html=1;exitX=0;exitY=0.3333333333333333;exitDx=0;exitDy=0;exitPerimeter=0;entryX=1;entryY=0.5;entryDx=0;entryDy=0;endArrow=none;endFill=0;" edge="1" parent="1" source="e4RKRJj5SFR6BGmdIC3z-4" target="e4RKRJj5SFR6BGmdIC3z-10">
          <mxGeometry relative="1" as="geometry" />
        </mxCell>
        <mxCell id="e4RKRJj5SFR6BGmdIC3z-4" value="Работник склада" style="shape=umlActor;verticalLabelPosition=bottom;verticalAlign=top;html=1;outlineConnect=0;" vertex="1" parent="1">
          <mxGeometry x="550" y="200" width="30" height="60" as="geometry" />
        </mxCell>
        <mxCell id="e4RKRJj5SFR6BGmdIC3z-21" style="rounded=0;orthogonalLoop=1;jettySize=auto;html=1;exitX=1;exitY=0.3333333333333333;exitDx=0;exitDy=0;exitPerimeter=0;entryX=0;entryY=0.5;entryDx=0;entryDy=0;endArrow=none;endFill=0;" edge="1" parent="1" source="e4RKRJj5SFR6BGmdIC3z-5" target="e4RKRJj5SFR6BGmdIC3z-20">
          <mxGeometry relative="1" as="geometry" />
        </mxCell>
        <mxCell id="e4RKRJj5SFR6BGmdIC3z-5" value="Поставщик" style="shape=umlActor;verticalLabelPosition=bottom;verticalAlign=top;html=1;outlineConnect=0;" vertex="1" parent="1">
          <mxGeometry x="230" y="180" width="30" height="60" as="geometry" />
        </mxCell>
        <mxCell id="e4RKRJj5SFR6BGmdIC3z-7" value="Выдача заказа" style="ellipse;whiteSpace=wrap;html=1;" vertex="1" parent="1">
          <mxGeometry x="384" y="330" width="60" height="40" as="geometry" />
        </mxCell>
        <mxCell id="e4RKRJj5SFR6BGmdIC3z-27" style="rounded=0;orthogonalLoop=1;jettySize=auto;html=1;exitX=1;exitY=0.5;exitDx=0;exitDy=0;entryX=0;entryY=0.5;entryDx=0;entryDy=0;endArrow=none;endFill=0;" edge="1" parent="1" source="e4RKRJj5SFR6BGmdIC3z-9" target="e4RKRJj5SFR6BGmdIC3z-7">
          <mxGeometry relative="1" as="geometry" />
        </mxCell>
        <mxCell id="e4RKRJj5SFR6BGmdIC3z-28" value="uses" style="edgeLabel;html=1;align=center;verticalAlign=middle;resizable=0;points=[];" vertex="1" connectable="0" parent="e4RKRJj5SFR6BGmdIC3z-27">
          <mxGeometry x="-0.0634" y="1" relative="1" as="geometry">
            <mxPoint as="offset" />
          </mxGeometry>
        </mxCell>
        <mxCell id="e4RKRJj5SFR6BGmdIC3z-9" value="Покупка товара" style="ellipse;whiteSpace=wrap;html=1;" vertex="1" parent="1">
          <mxGeometry x="290" y="290" width="60" height="40" as="geometry" />
        </mxCell>
        <mxCell id="e4RKRJj5SFR6BGmdIC3z-10" value="Приемка товара" style="ellipse;whiteSpace=wrap;html=1;" vertex="1" parent="1">
          <mxGeometry x="360" y="90" width="60" height="40" as="geometry" />
        </mxCell>
        <mxCell id="e4RKRJj5SFR6BGmdIC3z-11" value="Проведение ревизии" style="ellipse;whiteSpace=wrap;html=1;" vertex="1" parent="1">
          <mxGeometry x="370" y="210" width="60" height="40" as="geometry" />
        </mxCell>
        <mxCell id="e4RKRJj5SFR6BGmdIC3z-12" value="Проверка наличия товара" style="ellipse;whiteSpace=wrap;html=1;" vertex="1" parent="1">
          <mxGeometry x="444" y="270" width="60" height="40" as="geometry" />
        </mxCell>
        <mxCell id="e4RKRJj5SFR6BGmdIC3z-13" value="Заказ поставки" style="ellipse;whiteSpace=wrap;html=1;" vertex="1" parent="1">
          <mxGeometry x="390" y="160" width="60" height="40" as="geometry" />
        </mxCell>
        <mxCell id="e4RKRJj5SFR6BGmdIC3z-29" style="rounded=0;orthogonalLoop=1;jettySize=auto;html=1;exitX=1;exitY=0.5;exitDx=0;exitDy=0;entryX=0;entryY=0.5;entryDx=0;entryDy=0;endArrow=none;endFill=0;" edge="1" parent="1" source="e4RKRJj5SFR6BGmdIC3z-20" target="e4RKRJj5SFR6BGmdIC3z-10">
          <mxGeometry relative="1" as="geometry" />
        </mxCell>
        <mxCell id="e4RKRJj5SFR6BGmdIC3z-30" value="uses" style="edgeLabel;html=1;align=center;verticalAlign=middle;resizable=0;points=[];" vertex="1" connectable="0" parent="e4RKRJj5SFR6BGmdIC3z-29">
          <mxGeometry x="0.0759" y="1" relative="1" as="geometry">
            <mxPoint as="offset" />
          </mxGeometry>
        </mxCell>
        <mxCell id="e4RKRJj5SFR6BGmdIC3z-20" value="Привоз поставки" style="ellipse;whiteSpace=wrap;html=1;" vertex="1" parent="1">
          <mxGeometry x="280" y="140" width="60" height="40" as="geometry" />
        </mxCell>
        <mxCell id="e4RKRJj5SFR6BGmdIC3z-31" value="*" style="text;html=1;align=center;verticalAlign=middle;whiteSpace=wrap;rounded=0;" vertex="1" parent="1">
          <mxGeometry x="264" y="195" width="10" height="10" as="geometry" />
        </mxCell>
        <mxCell id="e4RKRJj5SFR6BGmdIC3z-32" value="*" style="text;html=1;align=center;verticalAlign=middle;whiteSpace=wrap;rounded=0;" vertex="1" parent="1">
          <mxGeometry x="274" y="170" width="10" height="10" as="geometry" />
        </mxCell>
        <mxCell id="e4RKRJj5SFR6BGmdIC3z-33" value="*" style="text;html=1;align=center;verticalAlign=middle;whiteSpace=wrap;rounded=0;" vertex="1" parent="1">
          <mxGeometry x="426" y="106" width="10" height="10" as="geometry" />
        </mxCell>
        <mxCell id="e4RKRJj5SFR6BGmdIC3z-34" value="*" style="text;html=1;align=center;verticalAlign=middle;whiteSpace=wrap;rounded=0;" vertex="1" parent="1">
          <mxGeometry x="532" y="195" width="10" height="10" as="geometry" />
        </mxCell>
        <mxCell id="e4RKRJj5SFR6BGmdIC3z-35" value="*" style="text;html=1;align=center;verticalAlign=middle;whiteSpace=wrap;rounded=0;" vertex="1" parent="1">
          <mxGeometry x="454" y="172" width="10" height="10" as="geometry" />
        </mxCell>
        <mxCell id="e4RKRJj5SFR6BGmdIC3z-36" value="*" style="text;html=1;align=center;verticalAlign=middle;whiteSpace=wrap;rounded=0;" vertex="1" parent="1">
          <mxGeometry x="442" y="215" width="10" height="10" as="geometry" />
        </mxCell>
        <mxCell id="e4RKRJj5SFR6BGmdIC3z-37" value="*" style="text;html=1;align=center;verticalAlign=middle;whiteSpace=wrap;rounded=0;" vertex="1" parent="1">
          <mxGeometry x="503" y="261" width="10" height="10" as="geometry" />
        </mxCell>
        <mxCell id="e4RKRJj5SFR6BGmdIC3z-38" value="*" style="text;html=1;align=center;verticalAlign=middle;whiteSpace=wrap;rounded=0;" vertex="1" parent="1">
          <mxGeometry x="534" y="223" width="10" height="10" as="geometry" />
        </mxCell>
        <mxCell id="e4RKRJj5SFR6BGmdIC3z-39" value="*" style="text;html=1;align=center;verticalAlign=middle;whiteSpace=wrap;rounded=0;" vertex="1" parent="1">
          <mxGeometry x="545" y="225" width="10" height="10" as="geometry" />
        </mxCell>
        <mxCell id="e4RKRJj5SFR6BGmdIC3z-40" value="*" style="text;html=1;align=center;verticalAlign=middle;whiteSpace=wrap;rounded=0;" vertex="1" parent="1">
          <mxGeometry x="523" y="214" width="10" height="10" as="geometry" />
        </mxCell>
        <mxCell id="e4RKRJj5SFR6BGmdIC3z-41" value="*" style="text;html=1;align=center;verticalAlign=middle;whiteSpace=wrap;rounded=0;" vertex="1" parent="1">
          <mxGeometry x="280" y="300" width="10" height="10" as="geometry" />
        </mxCell>
        <mxCell id="e4RKRJj5SFR6BGmdIC3z-42" value="*" style="text;html=1;align=center;verticalAlign=middle;whiteSpace=wrap;rounded=0;" vertex="1" parent="1">
          <mxGeometry x="261" y="308" width="10" height="10" as="geometry" />
        </mxCell>
      </root>
    </mxGraphModel>
  </diagram>
</mxfile>
